<?xml version="1.0" standalone="yes"?>
<svg xmlns="http://www.w3.org/2000/svg" width="145" height="120">
<path style="fill:#010101; stroke:none;" d="M0 0L0 49L1 49C2.96552 26.4872 25.2553 2.98576 48 1C35.5857 -4.20927 13.5264 0 0 0z"/>
<path style="fill:#f9fdfe; stroke:none;" d="M99 104C80.0132 111.985 66.2482 119.894 45 112.456C-11.5479 92.6613 -0.763702 6.72354 60 4.03935C75.9315 3.33559 85.1094 10.1586 99 16C90.9793 2.13786 70.1977 -0.0228271 56 0C44.5471 0.0184174 33.2411 3.61801 24 10.5147C-8.74784 34.9545 -8.66624 89.4405 27 111.532C45.4848 122.982 86.0638 126.357 99 104z"/>
<path style="fill:#010101; stroke:none;" d="M70 0L70 1C80.5411 1.9203 92.0762 8.07815 99 16C68.9536 -2.52533 30.4863 0.868652 12.3233 35C-2.9327 63.6686 13.1152 106.979 47 113L47 112C-13.8778 94.4624 5.31747 -2.40797 68 5.28627C115.582 11.1269 136.583 71.167 98 102.532C86.4036 111.96 72.6121 115 58 115L58 116C73.8577 116 85.5762 112.277 99 104C92.0762 111.922 80.5411 118.08 70 119L70 120L145 120L145 47L144 47C139.828 59.6781 135.111 52.1242 133 43L137 43L139 50L145 43L145 0L70 0z"/>
<path style="fill:#0176bc; stroke:none;" d="M41 10C49.0105 33.5634 82.4834 28.6037 99 19L99 17C81.5614 6.46371 60.458 -0.212227 41 10z"/>
<path style="fill:#039fda; stroke:none;" d="M40 10C31.5441 14.9877 3.83662 33.0502 17.5949 44.5478C22.9694 49.0392 43.4138 34.2064 40.6096 51.9954C40.291 54.0162 39.5228 56.024 39 58L46 60L45 47L70 53C68.2286 61.4704 60.1886 56.8333 54 56L54 62C61.494 62 73.6533 64.3359 80 60C69.6458 51.921 71.4566 42.9045 80.0903 34.0401C82.4874 31.579 87.8404 26.0255 91.8079 27.4213C95.0966 28.5783 93.1497 32.1991 91.7523 34C89.0103 37.5338 84.1996 40.4214 83.0826 45C80.4479 55.7996 102.693 61.0186 101.534 52.1196C100.793 46.4321 93.2337 48.13 94 40L117 47C114.593 35.4898 108.163 26.2314 100 18L99 18C78.0285 32.9184 56.1913 27.946 40 10z"/>
<path style="fill:#55cdf0; stroke:none;" d="M90 26L91 27L90 26z"/>
<path style="fill:#f9fdfe; stroke:none;" d="M90.8519 26.9668C79.7785 26.5611 68.298 45.8158 74.7029 54.9568C77.8015 59.379 86.742 61.3959 87.5733 67.0432C88.656 74.3979 78.3234 78.9827 74.3225 83.463C72.6473 85.3388 71.5339 89.0618 75.1489 89.4684C85.4405 90.6258 100.563 70.4875 95.5424 61.0903C92.7464 55.8569 83.7737 53.2685 83.0224 47C82.6124 43.5797 99.0554 27.2674 90.8519 26.9668z"/>
<path style="fill:#55cdf0; stroke:none;" d="M92 26L93 27L92 26M94 28L94 31L95 31L94 28M83 30L84 31L83 30M82 31L83 32L82 31M93 32L94 33L93 32M92 33L93 34L92 33M91 34L92 35L91 34M78 35L79 36L78 35M90 35L91 36L90 35M77 36L78 37L77 36M89 36L90 37L89 36M88 37L89 38L88 37M87 38L88 39L87 38M12 39C8.64288 53.6793 12.5897 53.7036 22 64L23 64L21 47L12 39M86 39L87 40L86 39M74 40L75 41L74 40M85 40L86 41L85 40M94 40L95 41L94 40z"/>
<path style="fill:#f9fdfe; stroke:none;" d="M126 40C124.993 42.8942 124.162 57.6218 129.722 56.1829C132.403 55.4889 130.879 42.5279 130 40L126 40M94 41L94 48C107.639 49.8863 103 68.3967 103 79C111.137 76.0083 109 59.4436 109 52L118 54C116.936 44.5527 102.088 42.1945 94 41z"/>
<path style="fill:#55cdf0; stroke:none;" d="M97 41L98 42L97 41M29 42L30 43L29 42z"/>
<path style="fill:#f9fdfe; stroke:none;" d="M26 78L28 78L29 67C33.7152 71.0925 36.2947 76.4903 43 77C42.2763 71.5811 37.081 68.0593 36.4977 63C35.7804 56.7785 44.3507 51.792 39.3966 45.1481C35.0368 39.3013 21.4473 43.3015 19.9282 50.0934C18.4662 56.6303 23.824 71.572 26 78z"/>
<path style="fill:#55cdf0; stroke:none;" d="M73 42L74 43L73 42M100 42L101 43L100 42M27 43L28 44L27 43M38 43L39 44L38 43M93 43L93 47L94 47L93 43M103 43L104 44L103 43z"/>
<path style="fill:#f9fdfe; stroke:none;" d="M133 43C135.074 57.0462 143.53 57.672 145 43L139 50L137 43L133 43z"/>
<path style="fill:#55cdf0; stroke:none;" d="M25 44L26 45L25 44M39 44L40 45L39 44M106.667 44.3333L107.333 44.6667L106.667 44.3333M23 45L24 46L23 45M72 45L73 46L72 45M82 45L83 46L82 45M110 45L111 46L110 45M22 46L23 47L22 46M113.667 46.3333L114.333 46.6667L113.667 46.3333M30 47L31 48L30 47z"/>
<path style="fill:#039fda; stroke:none;" d="M26 52L34 56C36.8576 47.903 31.2036 45.4413 26 52z"/>
<path style="fill:#55cdf0; stroke:none;" d="M34 47L35 48L34 47M45 47L46 48L45 47M82.3333 47.6667L82.6667 48.3333L82.3333 47.6667M116 47L117 48L116 47M28 48L29 49L28 48M35 48L36 49L35 48z"/>
<path style="fill:#f9fdfe; stroke:none;" d="M45 48L51 84C55.9248 82.6128 62.2442 82.42 64 77L54 78L54 68L67 69C64.2258 60.6349 53.1417 66.9603 53 55L69 59L70 54L45 48z"/>
<path style="fill:#55cdf0; stroke:none;" d="M49 48L50 49L49 48M97 48L98 49L97 48M27 49L28 50L27 49M53.6667 49.3333L54.3333 49.6667L53.6667 49.3333M100.667 49.3333L101.333 49.6667L100.667 49.3333M117 49L118 50L117 49M26 50L27 51L26 50M57.6667 50.3333L58.3333 50.6667L57.6667 50.3333M72.3333 50.6667L72.6667 51.3333L72.3333 50.6667M102 50C101.21 54.8513 98.1677 56.0062 94 58L97 67L102 66L102 71L103 71L102 50M25 51L27 62L34 56L25 51M45 51L45 54L46 54L45 51M61.6667 51.3333L62.3333 51.6667L61.6667 51.3333M35 52L36 53L35 52M65.6667 52.3333L66.3333 52.6667L65.6667 52.3333M109 52L109 62L119 58C116.992 53.2532 113.928 52.4066 109 52z"/>
<path style="fill:#039fda; stroke:none;" d="M9 53C9 66.6442 8.99592 85.111 21.0934 94.49C25.808 98.1452 33.2681 98.8404 39 99.7253C55.5553 102.281 72.6421 101.253 89 97.7894C94.9842 96.5223 103.823 95.3688 108.61 91.2978C116.953 84.2011 118.564 68.1525 119 58C105.472 61.8975 112.839 73.48 103 79L102 66C93.4951 67.8139 88.5403 82.1846 81 87.3472C79.4211 88.4282 71.0964 91.5891 72.6127 86.5316C74.5889 79.9395 84.2703 77.0266 87 70L54 73L54 77L65 77C61.5336 82.3461 55.9014 82.7826 50 84C49.8415 76.3206 48.7662 72.1084 41 70C46.0819 82.9319 32.6223 69.765 29 68L29 78L25 78C23.3761 65.162 19.9279 60.2214 9 53z"/>
<path style="fill:#55cdf0; stroke:none;" d="M40 53L41 54L40 53M69 53L70 54L69 53M73 53L74 54L73 53M87 53L88 54L87 53M34 54L35 55L34 54M88 54L89 55L88 54M39 55L40 56L39 55M53 55C53.0433 67.2146 62.468 60.7748 67 69L54 68L54 73L88 71C87.8198 55.7891 64.9399 62 54 62L55 55L53 55M69.3333 55.6667L69.6667 56.3333L69.3333 55.6667M74 55L75 56L74 55M57.6667 56.3333L58.3333 56.6667L57.6667 56.3333M75 56L76 57L75 56M91 56L92 57L91 56M38 57C32.7406 66.7685 41.2797 69.6588 49 73L47 58L46 58L38 57M61.6667 57.3333L62.3333 57.6667L61.6667 57.3333M76 57L77 58L76 57M92 57L93 58L92 57M65.6667 58.3333L66.3333 58.6667L65.6667 58.3333M77 58L78 59L77 58M79 59L80 60L79 59M108 65L108 69L109 69L108 65M23.3333 66.6667L23.6667 67.3333L23.3333 66.6667M29.6667 67.3333L30.3333 67.6667L29.6667 67.3333M96 68L97 69L96 68z"/>
<path style="fill:#010101; stroke:none;" d="M0 71L0 120L48 120L48 119C20.0793 116.562 10.3115 92.2833 0 71z"/>
<path style="fill:#55cdf0; stroke:none;" d="M41 71L42 72L41 71M95 71L96 72L95 71M24 72L24 75L25 75L24 72M34 72L35 73L34 72M42 72L43 73L42 72M86 72L87 73L86 72M35 73L36 74L35 73M85 73L86 74L85 73M49.3333 76.6667L49.6667 77.3333L49.3333 76.6667M25 77L26 78L25 77M28 77L29 78L28 77M39 77L39 78L42 78L39 77M54 77L54 78L57 78L54 77M64 77L65 78L64 77M91 77L92 78L91 77M80 78L81 79L80 78M79 79L80 80L79 79M63 80L64 81L63 80M60.6667 81.3333L61.3333 81.6667L60.6667 81.3333M50.3333 82.6667L50.6667 83.3333L50.3333 82.6667M56 82L57 83L56 82M75 82L76 83L75 82M52 83L53 84L52 83M82 86L83 87L82 86M71 87L72 88L71 87M81 87L82 88L81 87M79 88L80 89L79 88M72 89L73 90L72 89M77 89L78 90L77 89z"/>
<path style="fill:#0176bc; stroke:none;" d="M107 92L108 93L107 92M22 96C39.6113 120.482 92.8896 123.255 107 93L67 100.91L22 96M21 95L22 96L21 95z"/>
<path style="fill:#010101; stroke:none;" d="M48 113L48 114L51 114L48 113M52 114L52 115L57 115L52 114z"/>
</svg>
